<?xml version="1.0" standalone="no"?>
<!DOCTYPE svg PUBLIC "-//W3C//DTD SVG 1.1//EN" "http://www.w3.org/Graphics/SVG/1.1/DTD/svg11.dtd">
<svg version="1.1" width="1200" height="694" onload="init(evt)" viewBox="0 0 1200 694" xmlns="http://www.w3.org/2000/svg" xmlns:xlink="http://www.w3.org/1999/xlink">
<!-- Flame graph stack visualization. See https://github.com/brendangregg/FlameGraph for latest version, and http://www.brendangregg.com/flamegraphs.html for examples. -->
<!-- NOTES:  -->
<defs>
	<linearGradient id="background" y1="0" y2="1" x1="0" x2="0" >
		<stop stop-color="#eeeeee" offset="5%" />
		<stop stop-color="#eeeeb0" offset="95%" />
	</linearGradient>
</defs>
<style type="text/css">
	text { font-family:Verdana; font-size:12px; fill:rgb(0,0,0); }
	#search, #ignorecase { opacity:0.1; cursor:pointer; }
	#search:hover, #search.show, #ignorecase:hover, #ignorecase.show { opacity:1; }
	#subtitle { text-anchor:middle; font-color:rgb(160,160,160); }
	#title { text-anchor:middle; font-size:17px}
	#unzoom { cursor:pointer; }
	#frames > *:hover { stroke:black; stroke-width:0.5; cursor:pointer; }
	.hide { display:none; }
	.parent { opacity:0.5; }
</style>
<script type="text/ecmascript">
<![CDATA[
	"use strict";
	var details, searchbtn, unzoombtn, matchedtxt, svg, searching, currentSearchTerm, ignorecase, ignorecaseBtn;
	function init(evt) {
		details = document.getElementById("details").firstChild;
		searchbtn = document.getElementById("search");
		ignorecaseBtn = document.getElementById("ignorecase");
		unzoombtn = document.getElementById("unzoom");
		matchedtxt = document.getElementById("matched");
		svg = document.getElementsByTagName("svg")[0];
		searching = 0;
		currentSearchTerm = null;

		// use GET parameters to restore a flamegraphs state.
		var params = get_params();
		if (params.x && params.y)
			zoom(find_group(document.querySelector('[x="' + params.x + '"][y="' + params.y + '"]')));
                if (params.s) search(params.s);
	}

	// event listeners
	window.addEventListener("click", function(e) {
		var target = find_group(e.target);
		if (target) {
			if (target.nodeName == "a") {
				if (e.ctrlKey === false) return;
				e.preventDefault();
			}
			if (target.classList.contains("parent")) unzoom(true);
			zoom(target);
			if (!document.querySelector('.parent')) {
				// we have basically done a clearzoom so clear the url
				var params = get_params();
				if (params.x) delete params.x;
				if (params.y) delete params.y;
				history.replaceState(null, null, parse_params(params));
				unzoombtn.classList.add("hide");
				return;
			}

			// set parameters for zoom state
			var el = target.querySelector("rect");
			if (el && el.attributes && el.attributes.y && el.attributes._orig_x) {
				var params = get_params()
				params.x = el.attributes._orig_x.value;
				params.y = el.attributes.y.value;
				history.replaceState(null, null, parse_params(params));
			}
		}
		else if (e.target.id == "unzoom") clearzoom();
		else if (e.target.id == "search") search_prompt();
		else if (e.target.id == "ignorecase") toggle_ignorecase();
	}, false)

	// mouse-over for info
	// show
	window.addEventListener("mouseover", function(e) {
		var target = find_group(e.target);
		if (target) details.nodeValue = "Function: " + g_to_text(target);
	}, false)

	// clear
	window.addEventListener("mouseout", function(e) {
		var target = find_group(e.target);
		if (target) details.nodeValue = ' ';
	}, false)

	// ctrl-F for search
	// ctrl-I to toggle case-sensitive search
	window.addEventListener("keydown",function (e) {
		if (e.keyCode === 114 || (e.ctrlKey && e.keyCode === 70)) {
			e.preventDefault();
			search_prompt();
		}
		else if (e.ctrlKey && e.keyCode === 73) {
			e.preventDefault();
			toggle_ignorecase();
		}
	}, false)

	// functions
	function get_params() {
		var params = {};
		var paramsarr = window.location.search.substr(1).split('&');
		for (var i = 0; i < paramsarr.length; ++i) {
			var tmp = paramsarr[i].split("=");
			if (!tmp[0] || !tmp[1]) continue;
			params[tmp[0]]  = decodeURIComponent(tmp[1]);
		}
		return params;
	}
	function parse_params(params) {
		var uri = "?";
		for (var key in params) {
			uri += key + '=' + encodeURIComponent(params[key]) + '&';
		}
		if (uri.slice(-1) == "&")
			uri = uri.substring(0, uri.length - 1);
		if (uri == '?')
			uri = window.location.href.split('?')[0];
		return uri;
	}
	function find_child(node, selector) {
		var children = node.querySelectorAll(selector);
		if (children.length) return children[0];
	}
	function find_group(node) {
		var parent = node.parentElement;
		if (!parent) return;
		if (parent.id == "frames") return node;
		return find_group(parent);
	}
	function orig_save(e, attr, val) {
		if (e.attributes["_orig_" + attr] != undefined) return;
		if (e.attributes[attr] == undefined) return;
		if (val == undefined) val = e.attributes[attr].value;
		e.setAttribute("_orig_" + attr, val);
	}
	function orig_load(e, attr) {
		if (e.attributes["_orig_"+attr] == undefined) return;
		e.attributes[attr].value = e.attributes["_orig_" + attr].value;
		e.removeAttribute("_orig_"+attr);
	}
	function g_to_text(e) {
		var text = find_child(e, "title").firstChild.nodeValue;
		return (text)
	}
	function g_to_func(e) {
		var func = g_to_text(e);
		// if there's any manipulation we want to do to the function
		// name before it's searched, do it here before returning.
		return (func);
	}
	function update_text(e) {
		var r = find_child(e, "rect");
		var t = find_child(e, "text");
		var w = parseFloat(r.attributes.width.value) -3;
		var txt = find_child(e, "title").textContent.replace(/\([^(]*\)$/,"");
		t.attributes.x.value = parseFloat(r.attributes.x.value) + 3;

		// Smaller than this size won't fit anything
		if (w < 2 * 12 * 0.59) {
			t.textContent = "";
			return;
		}

		t.textContent = txt;
		var sl = t.getSubStringLength(0, txt.length);
		// check if only whitespace or if we can fit the entire string into width w
		if (/^ *$/.test(txt) || sl < w)
			return;

		// this isn't perfect, but gives a good starting point
		// and avoids calling getSubStringLength too often
		var start = Math.floor((w/sl) * txt.length);
		for (var x = start; x > 0; x = x-2) {
			if (t.getSubStringLength(0, x + 2) <= w) {
				t.textContent = txt.substring(0, x) + "..";
				return;
			}
		}
		t.textContent = "";
	}

	// zoom
	function zoom_reset(e) {
		if (e.attributes != undefined) {
			orig_load(e, "x");
			orig_load(e, "width");
		}
		if (e.childNodes == undefined) return;
		for (var i = 0, c = e.childNodes; i < c.length; i++) {
			zoom_reset(c[i]);
		}
	}
	function zoom_child(e, x, ratio) {
		if (e.attributes != undefined) {
			if (e.attributes.x != undefined) {
				orig_save(e, "x");
				e.attributes.x.value = (parseFloat(e.attributes.x.value) - x - 10) * ratio + 10;
				if (e.tagName == "text")
					e.attributes.x.value = find_child(e.parentNode, "rect[x]").attributes.x.value + 3;
			}
			if (e.attributes.width != undefined) {
				orig_save(e, "width");
				e.attributes.width.value = parseFloat(e.attributes.width.value) * ratio;
			}
		}

		if (e.childNodes == undefined) return;
		for (var i = 0, c = e.childNodes; i < c.length; i++) {
			zoom_child(c[i], x - 10, ratio);
		}
	}
	function zoom_parent(e) {
		if (e.attributes) {
			if (e.attributes.x != undefined) {
				orig_save(e, "x");
				e.attributes.x.value = 10;
			}
			if (e.attributes.width != undefined) {
				orig_save(e, "width");
				e.attributes.width.value = parseInt(svg.width.baseVal.value) - (10 * 2);
			}
		}
		if (e.childNodes == undefined) return;
		for (var i = 0, c = e.childNodes; i < c.length; i++) {
			zoom_parent(c[i]);
		}
	}
	function zoom(node) {
		var attr = find_child(node, "rect").attributes;
		var width = parseFloat(attr.width.value);
		var xmin = parseFloat(attr.x.value);
		var xmax = parseFloat(xmin + width);
		var ymin = parseFloat(attr.y.value);
		var ratio = (svg.width.baseVal.value - 2 * 10) / width;

		// XXX: Workaround for JavaScript float issues (fix me)
		var fudge = 0.0001;

		unzoombtn.classList.remove("hide");

		var el = document.getElementById("frames").children;
		for (var i = 0; i < el.length; i++) {
			var e = el[i];
			var a = find_child(e, "rect").attributes;
			var ex = parseFloat(a.x.value);
			var ew = parseFloat(a.width.value);
			var upstack;
			// Is it an ancestor
			if (0 == 0) {
				upstack = parseFloat(a.y.value) > ymin;
			} else {
				upstack = parseFloat(a.y.value) < ymin;
			}
			if (upstack) {
				// Direct ancestor
				if (ex <= xmin && (ex+ew+fudge) >= xmax) {
					e.classList.add("parent");
					zoom_parent(e);
					update_text(e);
				}
				// not in current path
				else
					e.classList.add("hide");
			}
			// Children maybe
			else {
				// no common path
				if (ex < xmin || ex + fudge >= xmax) {
					e.classList.add("hide");
				}
				else {
					zoom_child(e, xmin, ratio);
					update_text(e);
				}
			}
		}
		search();
	}
	function unzoom(dont_update_text) {
		unzoombtn.classList.add("hide");
		var el = document.getElementById("frames").children;
		for(var i = 0; i < el.length; i++) {
			el[i].classList.remove("parent");
			el[i].classList.remove("hide");
			zoom_reset(el[i]);
			if(!dont_update_text) update_text(el[i]);
		}
		search();
	}
	function clearzoom() {
		unzoom();

		// remove zoom state
		var params = get_params();
		if (params.x) delete params.x;
		if (params.y) delete params.y;
		history.replaceState(null, null, parse_params(params));
	}

	// search
	function toggle_ignorecase() {
		ignorecase = !ignorecase;
		if (ignorecase) {
			ignorecaseBtn.classList.add("show");
		} else {
			ignorecaseBtn.classList.remove("show");
		}
		reset_search();
		search();
	}
	function reset_search() {
		var el = document.querySelectorAll("#frames rect");
		for (var i = 0; i < el.length; i++) {
			orig_load(el[i], "fill")
		}
		var params = get_params();
		delete params.s;
		history.replaceState(null, null, parse_params(params));
	}
	function search_prompt() {
		if (!searching) {
			var term = prompt("Enter a search term (regexp " +
			    "allowed, eg: ^ext4_)"
			    + (ignorecase ? ", ignoring case" : "")
			    + "\nPress Ctrl-i to toggle case sensitivity", "");
			if (term != null) search(term);
		} else {
			reset_search();
			searching = 0;
			currentSearchTerm = null;
			searchbtn.classList.remove("show");
			searchbtn.firstChild.nodeValue = "Search"
			matchedtxt.classList.add("hide");
			matchedtxt.firstChild.nodeValue = ""
		}
	}
	function search(term) {
		if (term) currentSearchTerm = term;
		if (currentSearchTerm === null) return;

		var re = new RegExp(currentSearchTerm, ignorecase ? 'i' : '');
		var el = document.getElementById("frames").children;
		var matches = new Object();
		var maxwidth = 0;
		for (var i = 0; i < el.length; i++) {
			var e = el[i];
			var func = g_to_func(e);
			var rect = find_child(e, "rect");
			if (func == null || rect == null)
				continue;

			// Save max width. Only works as we have a root frame
			var w = parseFloat(rect.attributes.width.value);
			if (w > maxwidth)
				maxwidth = w;

			if (func.match(re)) {
				// highlight
				var x = parseFloat(rect.attributes.x.value);
				orig_save(rect, "fill");
				rect.attributes.fill.value = "rgb(230,0,230)";

				// remember matches
				if (matches[x] == undefined) {
					matches[x] = w;
				} else {
					if (w > matches[x]) {
						// overwrite with parent
						matches[x] = w;
					}
				}
				searching = 1;
			}
		}
		if (!searching)
			return;
		var params = get_params();
		params.s = currentSearchTerm;
		history.replaceState(null, null, parse_params(params));

		searchbtn.classList.add("show");
		searchbtn.firstChild.nodeValue = "Reset Search";

		// calculate percent matched, excluding vertical overlap
		var count = 0;
		var lastx = -1;
		var lastw = 0;
		var keys = Array();
		for (k in matches) {
			if (matches.hasOwnProperty(k))
				keys.push(k);
		}
		// sort the matched frames by their x location
		// ascending, then width descending
		keys.sort(function(a, b){
			return a - b;
		});
		// Step through frames saving only the biggest bottom-up frames
		// thanks to the sort order. This relies on the tree property
		// where children are always smaller than their parents.
		var fudge = 0.0001;	// JavaScript floating point
		for (var k in keys) {
			var x = parseFloat(keys[k]);
			var w = matches[keys[k]];
			if (x >= lastx + lastw - fudge) {
				count += w;
				lastx = x;
				lastw = w;
			}
		}
		// display matched percent
		matchedtxt.classList.remove("hide");
		var pct = 100 * count / maxwidth;
		if (pct != 100) pct = pct.toFixed(1)
		matchedtxt.firstChild.nodeValue = "Matched: " + pct + "%";
	}
]]>
</script>
<rect x="0.0" y="0" width="1200.0" height="694.0" fill="url(#background)"  />
<text id="title" x="600.00" y="24" >Flame Graph</text>
<text id="details" x="10.00" y="677" > </text>
<text id="unzoom" x="10.00" y="24" class="hide">Reset Zoom</text>
<text id="search" x="1090.00" y="24" >Search</text>
<text id="ignorecase" x="1174.00" y="24" >ic</text>
<text id="matched" x="1090.00" y="677" > </text>
<g id="frames">
<g >
<title>QWidgetPrivate::drawWidget (5,208,893 samples, 0.80%)</title><rect x="586.6" y="277" width="9.5" height="15.0" fill="rgb(234,133,32)" rx="2" ry="2" />
<text  x="589.63" y="287.5" ></text>
</g>
<g >
<title>[libQt6Gui.so.6.10.2] (75,213,474 samples, 11.62%)</title><rect x="973.4" y="533" width="137.2" height="15.0" fill="rgb(254,228,54)" rx="2" ry="2" />
<text  x="976.44" y="543.5" >[libQt6Gui.so.6.1..</text>
</g>
<g >
<title>[libc.so.6] (20,476,702 samples, 3.16%)</title><rect x="1152.7" y="597" width="37.3" height="15.0" fill="rgb(223,84,20)" rx="2" ry="2" />
<text  x="1155.67" y="607.5" >[li..</text>
</g>
<g >
<title>QGuiApplicationPrivate::processMouseEvent (42,110,872 samples, 6.51%)</title><rect x="509.9" y="421" width="76.7" height="15.0" fill="rgb(221,73,17)" rx="2" ry="2" />
<text  x="512.86" y="431.5" >QGuiAppl..</text>
</g>
<g >
<title>QWidgetLineControl::finishChange (5,017,560 samples, 0.78%)</title><rect x="509.9" y="181" width="9.1" height="15.0" fill="rgb(243,178,42)" rx="2" ry="2" />
<text  x="512.86" y="191.5" ></text>
</g>
<g >
<title>QWidgetPrivate::drawWidget (5,208,893 samples, 0.80%)</title><rect x="586.6" y="309" width="9.5" height="15.0" fill="rgb(234,133,32)" rx="2" ry="2" />
<text  x="589.63" y="319.5" ></text>
</g>
<g >
<title>_start (79,831,596 samples, 12.33%)</title><rect x="441.1" y="613" width="145.5" height="15.0" fill="rgb(245,185,44)" rx="2" ry="2" />
<text  x="444.09" y="623.5" >_start</text>
</g>
<g >
<title>[libQt6Widgets.so.6.10.2] (5,050,505 samples, 0.78%)</title><rect x="541.4" y="117" width="9.2" height="15.0" fill="rgb(251,212,50)" rx="2" ry="2" />
<text  x="544.40" y="127.5" ></text>
</g>
<g >
<title>QRunnable::QGenericRunnable::~QGenericRunnable (20,815,421 samples, 3.22%)</title><rect x="718.5" y="549" width="38.0" height="15.0" fill="rgb(224,91,21)" rx="2" ry="2" />
<text  x="721.51" y="559.5" >QRu..</text>
</g>
<g >
<title>QWidgetPrivate::paintSiblingsRecursive (24,968,849 samples, 3.86%)</title><rect x="464.3" y="277" width="45.6" height="15.0" fill="rgb(234,137,32)" rx="2" ry="2" />
<text  x="467.34" y="287.5" >QWid..</text>
</g>
<g >
<title>QBasicTimer::start (14,708,844 samples, 2.27%)</title><rect x="550.6" y="293" width="26.8" height="15.0" fill="rgb(208,17,4)" rx="2" ry="2" />
<text  x="553.61" y="303.5" >Q..</text>
</g>
<g >
<title>QWidgetPrivate::paintSiblingsRecursive (24,968,849 samples, 3.86%)</title><rect x="464.3" y="181" width="45.6" height="15.0" fill="rgb(234,137,32)" rx="2" ry="2" />
<text  x="467.34" y="191.5" >QWid..</text>
</g>
<g >
<title>[libQt6Gui.so.6.10.2] (90,351,940 samples, 13.96%)</title><rect x="267.9" y="549" width="164.7" height="15.0" fill="rgb(254,228,54)" rx="2" ry="2" />
<text  x="270.90" y="559.5" >[libQt6Gui.so.6.10.2]</text>
</g>
<g >
<title>QWidgetRepaintManager::paintAndFlush (5,208,893 samples, 0.80%)</title><rect x="586.6" y="421" width="9.5" height="15.0" fill="rgb(216,52,12)" rx="2" ry="2" />
<text  x="589.63" y="431.5" ></text>
</g>
<g >
<title>QWidgetPrivate::paintSiblingsRecursive (24,968,849 samples, 3.86%)</title><rect x="464.3" y="341" width="45.6" height="15.0" fill="rgb(234,137,32)" rx="2" ry="2" />
<text  x="467.34" y="351.5" >QWid..</text>
</g>
<g >
<title>QEventLoop::exec (5,208,893 samples, 0.80%)</title><rect x="586.6" y="581" width="9.5" height="15.0" fill="rgb(252,218,52)" rx="2" ry="2" />
<text  x="589.63" y="591.5" ></text>
</g>
<g >
<title>QPainter::setRenderHints (24,968,849 samples, 3.86%)</title><rect x="464.3" y="101" width="45.6" height="15.0" fill="rgb(251,215,51)" rx="2" ry="2" />
<text  x="467.34" y="111.5" >QPai..</text>
</g>
<g >
<title>QWidgetPrivate::drawWidget (5,208,893 samples, 0.80%)</title><rect x="586.6" y="405" width="9.5" height="15.0" fill="rgb(234,133,32)" rx="2" ry="2" />
<text  x="589.63" y="415.5" ></text>
</g>
<g >
<title>[libQt6Gui.so.6.10.2] (88,200,574 samples, 13.63%)</title><rect x="949.8" y="549" width="160.8" height="15.0" fill="rgb(254,228,54)" rx="2" ry="2" />
<text  x="952.76" y="559.5" >[libQt6Gui.so.6.10.2]</text>
</g>
<g >
<title>[ld-linux-x86-64.so.2] (5,050,505 samples, 0.78%)</title><rect x="10.0" y="597" width="9.2" height="15.0" fill="rgb(243,178,42)" rx="2" ry="2" />
<text  x="13.00" y="607.5" ></text>
</g>
<g >
<title>[libc.so.6] (61,519,953 samples, 9.51%)</title><rect x="794.3" y="517" width="112.2" height="15.0" fill="rgb(223,84,20)" rx="2" ry="2" />
<text  x="797.29" y="527.5" >[libc.so.6]</text>
</g>
<g >
<title>[libQt6Core.so.6.10.2] (266,431,370 samples, 41.16%)</title><rect x="666.9" y="581" width="485.8" height="15.0" fill="rgb(208,17,4)" rx="2" ry="2" />
<text  x="669.93" y="591.5" >[libQt6Core.so.6.10.2]</text>
</g>
<g >
<title>[libQt6Gui.so.6.10.2] (226,758,833 samples, 35.04%)</title><rect x="19.2" y="613" width="413.4" height="15.0" fill="rgb(254,228,54)" rx="2" ry="2" />
<text  x="22.21" y="623.5" >[libQt6Gui.so.6.10.2]</text>
</g>
<g >
<title>QTimerInfoList::registerTimer (14,708,844 samples, 2.27%)</title><rect x="550.6" y="261" width="26.8" height="15.0" fill="rgb(229,114,27)" rx="2" ry="2" />
<text  x="553.61" y="271.5" >Q..</text>
</g>
<g >
<title>[libQt6Widgets.so.6.10.2] (42,110,872 samples, 6.51%)</title><rect x="509.9" y="373" width="76.7" height="15.0" fill="rgb(251,212,50)" rx="2" ry="2" />
<text  x="512.86" y="383.5" >[libQt6W..</text>
</g>
<g >
<title>[libQt6Gui.so.6.10.2] (42,110,872 samples, 6.51%)</title><rect x="509.9" y="453" width="76.7" height="15.0" fill="rgb(254,228,54)" rx="2" ry="2" />
<text  x="512.86" y="463.5" >[libQt6G..</text>
</g>
<g >
<title>[libQt6Core.so.6.10.2] (5,208,893 samples, 0.80%)</title><rect x="586.6" y="501" width="9.5" height="15.0" fill="rgb(208,17,4)" rx="2" ry="2" />
<text  x="589.63" y="511.5" ></text>
</g>
<g >
<title>[libc.so.6] (5,050,505 samples, 0.78%)</title><rect x="1143.5" y="517" width="9.2" height="15.0" fill="rgb(223,84,20)" rx="2" ry="2" />
<text  x="1146.46" y="527.5" ></text>
</g>
<g >
<title>QEventLoop::exec (79,831,596 samples, 12.33%)</title><rect x="441.1" y="533" width="145.5" height="15.0" fill="rgb(252,218,52)" rx="2" ry="2" />
<text  x="444.09" y="543.5" >QEventLoop::exec</text>
</g>
<g >
<title>[libglib-2.0.so.0.8600.4] (5,208,893 samples, 0.80%)</title><rect x="586.6" y="533" width="9.5" height="15.0" fill="rgb(245,185,44)" rx="2" ry="2" />
<text  x="589.63" y="543.5" ></text>
</g>
<g >
<title>malloc (5,017,560 samples, 0.78%)</title><rect x="509.9" y="37" width="9.1" height="15.0" fill="rgb(230,119,28)" rx="2" ry="2" />
<text  x="512.86" y="47.5" ></text>
</g>
<g >
<title>QCoreApplication::notifyInternal2 (5,208,893 samples, 0.80%)</title><rect x="586.6" y="469" width="9.5" height="15.0" fill="rgb(213,40,9)" rx="2" ry="2" />
<text  x="589.63" y="479.5" ></text>
</g>
<g >
<title>QAccessibleEvent::accessibleInterface (5,017,560 samples, 0.78%)</title><rect x="509.9" y="133" width="9.1" height="15.0" fill="rgb(218,62,15)" rx="2" ry="2" />
<text  x="512.86" y="143.5" ></text>
</g>
<g >
<title>QWidgetPrivate::paintSiblingsRecursive (5,208,893 samples, 0.80%)</title><rect x="586.6" y="293" width="9.5" height="15.0" fill="rgb(234,137,32)" rx="2" ry="2" />
<text  x="589.63" y="303.5" ></text>
</g>
<g >
<title>[libQt6Gui.so.6.10.2] (5,208,893 samples, 0.80%)</title><rect x="586.6" y="149" width="9.5" height="15.0" fill="rgb(254,228,54)" rx="2" ry="2" />
<text  x="589.63" y="159.5" ></text>
</g>
<g >
<title>QWindowSystemInterface::sendWindowSystemEvents (42,110,872 samples, 6.51%)</title><rect x="509.9" y="437" width="76.7" height="15.0" fill="rgb(229,111,26)" rx="2" ry="2" />
<text  x="512.86" y="447.5" >QWindowS..</text>
</g>
<g >
<title>QWidgetPrivate::paintSiblingsRecursive (24,968,849 samples, 3.86%)</title><rect x="464.3" y="309" width="45.6" height="15.0" fill="rgb(234,137,32)" rx="2" ry="2" />
<text  x="467.34" y="319.5" >QWid..</text>
</g>
<g >
<title>QAccessible::updateAccessibility (5,017,560 samples, 0.78%)</title><rect x="509.9" y="149" width="9.1" height="15.0" fill="rgb(254,229,54)" rx="2" ry="2" />
<text  x="512.86" y="159.5" ></text>
</g>
<g >
<title>QWidgetPrivate::drawWidget (5,208,893 samples, 0.80%)</title><rect x="586.6" y="341" width="9.5" height="15.0" fill="rgb(234,133,32)" rx="2" ry="2" />
<text  x="589.63" y="351.5" ></text>
</g>
<g >
<title>QTransform::map (5,208,893 samples, 0.80%)</title><rect x="586.6" y="133" width="9.5" height="15.0" fill="rgb(211,27,6)" rx="2" ry="2" />
<text  x="589.63" y="143.5" ></text>
</g>
<g >
<title>QWidgetPrivate::paintSiblingsRecursive (5,208,893 samples, 0.80%)</title><rect x="586.6" y="389" width="9.5" height="15.0" fill="rgb(234,137,32)" rx="2" ry="2" />
<text  x="589.63" y="399.5" ></text>
</g>
<g >
<title>QLineEdit::focusOutEvent (5,017,560 samples, 0.78%)</title><rect x="509.9" y="197" width="9.1" height="15.0" fill="rgb(239,157,37)" rx="2" ry="2" />
<text  x="512.86" y="207.5" ></text>
</g>
<g >
<title>QWidgetPrivate::paintBackground (24,968,849 samples, 3.86%)</title><rect x="464.3" y="149" width="45.6" height="15.0" fill="rgb(212,32,7)" rx="2" ry="2" />
<text  x="467.34" y="159.5" >QWid..</text>
</g>
<g >
<title>QTransform::do_map (5,208,893 samples, 0.80%)</title><rect x="586.6" y="117" width="9.5" height="15.0" fill="rgb(234,134,32)" rx="2" ry="2" />
<text  x="589.63" y="127.5" ></text>
</g>
<g >
<title>QSinglePointEvent::QSinglePointEvent (5,050,505 samples, 0.78%)</title><rect x="577.4" y="277" width="9.2" height="15.0" fill="rgb(251,215,51)" rx="2" ry="2" />
<text  x="580.42" y="287.5" ></text>
</g>
<g >
<title>[ld-linux-x86-64.so.2] (5,050,505 samples, 0.78%)</title><rect x="10.0" y="581" width="9.2" height="15.0" fill="rgb(243,178,42)" rx="2" ry="2" />
<text  x="13.00" y="591.5" ></text>
</g>
<g >
<title>QWidgetPrivate::paintSiblingsRecursive (24,968,849 samples, 3.86%)</title><rect x="464.3" y="261" width="45.6" height="15.0" fill="rgb(234,137,32)" rx="2" ry="2" />
<text  x="467.34" y="271.5" >QWid..</text>
</g>
<g >
<title>QWidget::event (5,017,560 samples, 0.78%)</title><rect x="509.9" y="213" width="9.1" height="15.0" fill="rgb(210,24,5)" rx="2" ry="2" />
<text  x="512.86" y="223.5" ></text>
</g>
<g >
<title>QMouseEvent::QMouseEvent (5,050,505 samples, 0.78%)</title><rect x="577.4" y="293" width="9.2" height="15.0" fill="rgb(245,187,44)" rx="2" ry="2" />
<text  x="580.42" y="303.5" ></text>
</g>
<g >
<title>[libQt6Gui.so.6.10.2] (210,148,285 samples, 32.47%)</title><rect x="49.5" y="597" width="383.1" height="15.0" fill="rgb(254,228,54)" rx="2" ry="2" />
<text  x="52.49" y="607.5" >[libQt6Gui.so.6.10.2]</text>
</g>
<g >
<title>[libQt6Gui.so.6.10.2] (24,966,220 samples, 3.86%)</title><rect x="387.1" y="533" width="45.5" height="15.0" fill="rgb(254,228,54)" rx="2" ry="2" />
<text  x="390.10" y="543.5" >[lib..</text>
</g>
<g >
<title>QAbstractItemView::edit (17,333,963 samples, 2.68%)</title><rect x="519.0" y="213" width="31.6" height="15.0" fill="rgb(235,139,33)" rx="2" ry="2" />
<text  x="522.01" y="223.5" >QA..</text>
</g>
<g >
<title>[libQt6Widgets.so.6.10.2] (24,968,849 samples, 3.86%)</title><rect x="464.3" y="117" width="45.6" height="15.0" fill="rgb(251,212,50)" rx="2" ry="2" />
<text  x="467.34" y="127.5" >[lib..</text>
</g>
<g >
<title>QApplicationPrivate::notify_helper (17,333,963 samples, 2.68%)</title><rect x="519.0" y="293" width="31.6" height="15.0" fill="rgb(210,26,6)" rx="2" ry="2" />
<text  x="522.01" y="303.5" >QA..</text>
</g>
<g >
<title>[libc.so.6] (5,050,505 samples, 0.78%)</title><rect x="1143.5" y="533" width="9.2" height="15.0" fill="rgb(223,84,20)" rx="2" ry="2" />
<text  x="1146.46" y="543.5" ></text>
</g>
<g >
<title>[libQt6Widgets.so.6.10.2] (42,110,872 samples, 6.51%)</title><rect x="509.9" y="357" width="76.7" height="15.0" fill="rgb(251,212,50)" rx="2" ry="2" />
<text  x="512.86" y="367.5" >[libQt6W..</text>
</g>
<g >
<title>[libc.so.6] (12,404,245 samples, 1.92%)</title><rect x="883.8" y="485" width="22.7" height="15.0" fill="rgb(223,84,20)" rx="2" ry="2" />
<text  x="886.84" y="495.5" >[..</text>
</g>
<g >
<title>QArrayData::allocate (5,017,560 samples, 0.78%)</title><rect x="509.9" y="53" width="9.1" height="15.0" fill="rgb(241,166,39)" rx="2" ry="2" />
<text  x="512.86" y="63.5" ></text>
</g>
<g >
<title>Thread_(pooled) (305,263,853 samples, 47.16%)</title><rect x="596.1" y="629" width="556.6" height="15.0" fill="rgb(246,193,46)" rx="2" ry="2" />
<text  x="599.13" y="639.5" >Thread_(pooled)</text>
</g>
<g >
<title>QCoreApplication::exec (5,208,893 samples, 0.80%)</title><rect x="586.6" y="597" width="9.5" height="15.0" fill="rgb(218,61,14)" rx="2" ry="2" />
<text  x="589.63" y="607.5" ></text>
</g>
<g >
<title>[ld-linux-x86-64.so.2] (5,050,505 samples, 0.78%)</title><rect x="10.0" y="533" width="9.2" height="15.0" fill="rgb(243,178,42)" rx="2" ry="2" />
<text  x="13.00" y="543.5" ></text>
</g>
<g >
<title>QWidgetPrivate::drawWidget (24,968,849 samples, 3.86%)</title><rect x="464.3" y="165" width="45.6" height="15.0" fill="rgb(234,133,32)" rx="2" ry="2" />
<text  x="467.34" y="175.5" >QWid..</text>
</g>
<g >
<title>QAbstractItemView::initViewItemOption (17,333,963 samples, 2.68%)</title><rect x="519.0" y="165" width="31.6" height="15.0" fill="rgb(223,83,20)" rx="2" ry="2" />
<text  x="522.01" y="175.5" >QA..</text>
</g>
<g >
<title>ASTRA (321,493,816 samples, 49.67%)</title><rect x="10.0" y="629" width="586.1" height="15.0" fill="rgb(215,47,11)" rx="2" ry="2" />
<text  x="13.00" y="639.5" >ASTRA</text>
</g>
<g >
<title>QWaitCondition::wait (87,988,434 samples, 13.59%)</title><rect x="756.5" y="549" width="160.4" height="15.0" fill="rgb(211,30,7)" rx="2" ry="2" />
<text  x="759.46" y="559.5" >QWaitCondition::wait</text>
</g>
<g >
<title>[libQt6Gui.so.6.10.2] (12,987,100 samples, 2.01%)</title><rect x="605.3" y="613" width="23.7" height="15.0" fill="rgb(254,228,54)" rx="2" ry="2" />
<text  x="608.34" y="623.5" >[..</text>
</g>
<g >
<title>[libc.so.6] (266,431,370 samples, 41.16%)</title><rect x="666.9" y="597" width="485.8" height="15.0" fill="rgb(223,84,20)" rx="2" ry="2" />
<text  x="669.93" y="607.5" >[libc.so.6]</text>
</g>
<g >
<title>QApplicationPrivate::notify_helper (30,019,354 samples, 4.64%)</title><rect x="455.1" y="405" width="54.8" height="15.0" fill="rgb(210,26,6)" rx="2" ry="2" />
<text  x="458.13" y="415.5" >QAppl..</text>
</g>
<g >
<title>[libQt6Widgets.so.6.10.2] (5,208,893 samples, 0.80%)</title><rect x="586.6" y="181" width="9.5" height="15.0" fill="rgb(251,212,50)" rx="2" ry="2" />
<text  x="589.63" y="191.5" ></text>
</g>
<g >
<title>QWidgetPrivate::paintSiblingsRecursive (5,208,893 samples, 0.80%)</title><rect x="586.6" y="261" width="9.5" height="15.0" fill="rgb(234,137,32)" rx="2" ry="2" />
<text  x="589.63" y="271.5" ></text>
</g>
<g >
<title>[libc.so.6] (20,815,421 samples, 3.22%)</title><rect x="718.5" y="517" width="38.0" height="15.0" fill="rgb(223,84,20)" rx="2" ry="2" />
<text  x="721.51" y="527.5" >[li..</text>
</g>
<g >
<title>QAbstractItemView::mouseMoveEvent (17,333,963 samples, 2.68%)</title><rect x="519.0" y="229" width="31.6" height="15.0" fill="rgb(239,158,37)" rx="2" ry="2" />
<text  x="522.01" y="239.5" >QA..</text>
</g>
<g >
<title>g_main_context_iteration (5,208,893 samples, 0.80%)</title><rect x="586.6" y="549" width="9.5" height="15.0" fill="rgb(245,186,44)" rx="2" ry="2" />
<text  x="589.63" y="559.5" ></text>
</g>
<g >
<title>QCoreApplication::notifyInternal2 (42,110,872 samples, 6.51%)</title><rect x="509.9" y="325" width="76.7" height="15.0" fill="rgb(213,40,9)" rx="2" ry="2" />
<text  x="512.86" y="335.5" >QCoreApp..</text>
</g>
<g >
<title>pthread_mutex_lock (5,714,765 samples, 0.88%)</title><rect x="906.5" y="533" width="10.4" height="15.0" fill="rgb(247,196,46)" rx="2" ry="2" />
<text  x="909.45" y="543.5" ></text>
</g>
<g >
<title>__libc_start_main (79,831,596 samples, 12.33%)</title><rect x="441.1" y="597" width="145.5" height="15.0" fill="rgb(236,142,34)" rx="2" ry="2" />
<text  x="444.09" y="607.5" >__libc_start_main</text>
</g>
<g >
<title>QMetaObject::cast (12,283,458 samples, 1.90%)</title><rect x="519.0" y="117" width="22.4" height="15.0" fill="rgb(237,148,35)" rx="2" ry="2" />
<text  x="522.01" y="127.5" >Q..</text>
</g>
<g >
<title>[ld-linux-x86-64.so.2] (5,050,505 samples, 0.78%)</title><rect x="10.0" y="565" width="9.2" height="15.0" fill="rgb(243,178,42)" rx="2" ry="2" />
<text  x="13.00" y="575.5" ></text>
</g>
<g >
<title>[libQt6Gui.so.6.10.2] (20,815,421 samples, 3.22%)</title><rect x="718.5" y="533" width="38.0" height="15.0" fill="rgb(254,228,54)" rx="2" ry="2" />
<text  x="721.51" y="543.5" >[li..</text>
</g>
<g >
<title>[ld-linux-x86-64.so.2] (5,050,505 samples, 0.78%)</title><rect x="10.0" y="517" width="9.2" height="15.0" fill="rgb(243,178,42)" rx="2" ry="2" />
<text  x="13.00" y="527.5" ></text>
</g>
<g >
<title>QWidgetPrivate::paintSiblingsRecursive (5,208,893 samples, 0.80%)</title><rect x="586.6" y="245" width="9.5" height="15.0" fill="rgb(234,137,32)" rx="2" ry="2" />
<text  x="589.63" y="255.5" ></text>
</g>
<g >
<title>QWidgetPrivate::paintSiblingsRecursive (24,968,849 samples, 3.86%)</title><rect x="464.3" y="229" width="45.6" height="15.0" fill="rgb(234,137,32)" rx="2" ry="2" />
<text  x="467.34" y="239.5" >QWid..</text>
</g>
<g >
<title>g_main_context_iteration (79,831,596 samples, 12.33%)</title><rect x="441.1" y="501" width="145.5" height="15.0" fill="rgb(245,186,44)" rx="2" ry="2" />
<text  x="444.09" y="511.5" >g_main_context_ite..</text>
</g>
<g >
<title>[libQt6Core.so.6.10.2] (37,720,724 samples, 5.83%)</title><rect x="441.1" y="453" width="68.8" height="15.0" fill="rgb(208,17,4)" rx="2" ry="2" />
<text  x="444.09" y="463.5" >[libQt6..</text>
</g>
<g >
<title>[libQt6WaylandClient.so.6.10.2] (20,476,702 samples, 3.16%)</title><rect x="1152.7" y="565" width="37.3" height="15.0" fill="rgb(225,92,22)" rx="2" ry="2" />
<text  x="1155.67" y="575.5" >[li..</text>
</g>
<g >
<title>QApplication::notify (42,110,872 samples, 6.51%)</title><rect x="509.9" y="309" width="76.7" height="15.0" fill="rgb(230,118,28)" rx="2" ry="2" />
<text  x="512.86" y="319.5" >QApplica..</text>
</g>
<g >
<title>QCoreApplicationPrivate::sendThroughObjectEventFilters (17,333,963 samples, 2.68%)</title><rect x="519.0" y="277" width="31.6" height="15.0" fill="rgb(253,224,53)" rx="2" ry="2" />
<text  x="522.01" y="287.5" >QC..</text>
</g>
<g >
<title>QTextLine::layout_helper (16,610,548 samples, 2.57%)</title><rect x="19.2" y="597" width="30.3" height="15.0" fill="rgb(212,36,8)" rx="2" ry="2" />
<text  x="22.21" y="607.5" >QT..</text>
</g>
<g >
<title>QCoreApplication::notifyInternal2 (42,110,872 samples, 6.51%)</title><rect x="509.9" y="405" width="76.7" height="15.0" fill="rgb(213,40,9)" rx="2" ry="2" />
<text  x="512.86" y="415.5" >QCoreApp..</text>
</g>
<g >
<title>wl_display_read_events (15,426,197 samples, 2.38%)</title><rect x="1161.9" y="549" width="28.1" height="15.0" fill="rgb(228,105,25)" rx="2" ry="2" />
<text  x="1164.88" y="559.5" >w..</text>
</g>
<g >
<title>main (5,208,893 samples, 0.80%)</title><rect x="586.6" y="613" width="9.5" height="15.0" fill="rgb(243,179,42)" rx="2" ry="2" />
<text  x="589.63" y="623.5" ></text>
</g>
<g >
<title>QEventDispatcherGlib::processEvents (5,208,893 samples, 0.80%)</title><rect x="586.6" y="565" width="9.5" height="15.0" fill="rgb(224,90,21)" rx="2" ry="2" />
<text  x="589.63" y="575.5" ></text>
</g>
<g >
<title>[libQt6Widgets.so.6.10.2] (17,333,963 samples, 2.68%)</title><rect x="519.0" y="133" width="31.6" height="15.0" fill="rgb(251,212,50)" rx="2" ry="2" />
<text  x="522.01" y="143.5" >[l..</text>
</g>
<g >
<title>[libQt6Gui.so.6.10.2] (4,643,989 samples, 0.72%)</title><rect x="432.6" y="597" width="8.5" height="15.0" fill="rgb(254,228,54)" rx="2" ry="2" />
<text  x="435.62" y="607.5" ></text>
</g>
<g >
<title>[libQt6Gui.so.6.10.2] (5,017,560 samples, 0.78%)</title><rect x="509.9" y="69" width="9.1" height="15.0" fill="rgb(254,228,54)" rx="2" ry="2" />
<text  x="512.86" y="79.5" ></text>
</g>
<g >
<title>[ld-linux-x86-64.so.2] (5,050,505 samples, 0.78%)</title><rect x="10.0" y="613" width="9.2" height="15.0" fill="rgb(243,178,42)" rx="2" ry="2" />
<text  x="13.00" y="623.5" ></text>
</g>
<g >
<title>[libQt6Core.so.6.10.2] (20,476,702 samples, 3.16%)</title><rect x="1152.7" y="581" width="37.3" height="15.0" fill="rgb(208,17,4)" rx="2" ry="2" />
<text  x="1155.67" y="591.5" >[li..</text>
</g>
<g >
<title>[libQt6Core.so.6.10.2] (266,431,370 samples, 41.16%)</title><rect x="666.9" y="565" width="485.8" height="15.0" fill="rgb(208,17,4)" rx="2" ry="2" />
<text  x="669.93" y="575.5" >[libQt6Core.so.6.10.2]</text>
</g>
<g >
<title>[libglib-2.0.so.0.8600.4] (79,831,596 samples, 12.33%)</title><rect x="441.1" y="485" width="145.5" height="15.0" fill="rgb(245,185,44)" rx="2" ry="2" />
<text  x="444.09" y="495.5" >[libglib-2.0.so.0...</text>
</g>
<g >
<title>QWidget::event (24,968,849 samples, 3.86%)</title><rect x="464.3" y="389" width="45.6" height="15.0" fill="rgb(210,24,5)" rx="2" ry="2" />
<text  x="467.34" y="399.5" >QWid..</text>
</g>
<g >
<title>QApplicationPrivate::notify_helper (5,017,560 samples, 0.78%)</title><rect x="509.9" y="229" width="9.1" height="15.0" fill="rgb(210,26,6)" rx="2" ry="2" />
<text  x="512.86" y="239.5" ></text>
</g>
<g >
<title>QCoreApplication::notifyInternal2 (30,019,354 samples, 4.64%)</title><rect x="455.1" y="421" width="54.8" height="15.0" fill="rgb(213,40,9)" rx="2" ry="2" />
<text  x="458.13" y="431.5" >QCore..</text>
</g>
<g >
<title>QWidgetPrivate::setSystemClip (5,208,893 samples, 0.80%)</title><rect x="586.6" y="197" width="9.5" height="15.0" fill="rgb(221,76,18)" rx="2" ry="2" />
<text  x="589.63" y="207.5" ></text>
</g>
<g >
<title>all (647,234,371 samples, 100%)</title><rect x="10.0" y="645" width="1180.0" height="15.0" fill="rgb(213,39,9)" rx="2" ry="2" />
<text  x="13.00" y="655.5" ></text>
</g>
<g >
<title>QWidgetPrivate::drawWidget (5,208,893 samples, 0.80%)</title><rect x="586.6" y="373" width="9.5" height="15.0" fill="rgb(234,133,32)" rx="2" ry="2" />
<text  x="589.63" y="383.5" ></text>
</g>
<g >
<title>QWidgetPrivate::paintSiblingsRecursive (5,208,893 samples, 0.80%)</title><rect x="586.6" y="229" width="9.5" height="15.0" fill="rgb(234,137,32)" rx="2" ry="2" />
<text  x="589.63" y="239.5" ></text>
</g>
<g >
<title>[libc.so.6] (287,226,248 samples, 44.38%)</title><rect x="629.0" y="613" width="523.7" height="15.0" fill="rgb(223,84,20)" rx="2" ry="2" />
<text  x="632.01" y="623.5" >[libc.so.6]</text>
</g>
<g >
<title>QTransform::map (5,208,893 samples, 0.80%)</title><rect x="586.6" y="165" width="9.5" height="15.0" fill="rgb(211,27,6)" rx="2" ry="2" />
<text  x="589.63" y="175.5" ></text>
</g>
<g >
<title>QEventDispatcherGlib::processEvents (79,831,596 samples, 12.33%)</title><rect x="441.1" y="517" width="145.5" height="15.0" fill="rgb(224,90,21)" rx="2" ry="2" />
<text  x="444.09" y="527.5" >QEventDispatcherGl..</text>
</g>
<g >
<title>[libc.so.6] (8,411,176 samples, 1.30%)</title><rect x="741.1" y="501" width="15.4" height="15.0" fill="rgb(223,84,20)" rx="2" ry="2" />
<text  x="744.12" y="511.5" ></text>
</g>
<g >
<title>QWidgetPrivate::drawWidget (5,208,893 samples, 0.80%)</title><rect x="586.6" y="213" width="9.5" height="15.0" fill="rgb(234,133,32)" rx="2" ry="2" />
<text  x="589.63" y="223.5" ></text>
</g>
<g >
<title>QWidgetPrivate::drawWidget (24,968,849 samples, 3.86%)</title><rect x="464.3" y="293" width="45.6" height="15.0" fill="rgb(234,133,32)" rx="2" ry="2" />
<text  x="467.34" y="303.5" >QWid..</text>
</g>
<g >
<title>[ld-linux-x86-64.so.2] (5,050,505 samples, 0.78%)</title><rect x="10.0" y="501" width="9.2" height="15.0" fill="rgb(243,178,42)" rx="2" ry="2" />
<text  x="13.00" y="511.5" ></text>
</g>
<g >
<title>QApplicationPrivate::giveFocusAccordingToFocusPolicy (5,017,560 samples, 0.78%)</title><rect x="509.9" y="293" width="9.1" height="15.0" fill="rgb(237,151,36)" rx="2" ry="2" />
<text  x="512.86" y="303.5" ></text>
</g>
<g >
<title>[libQt6Widgets.so.6.10.2] (5,017,560 samples, 0.78%)</title><rect x="509.9" y="261" width="9.1" height="15.0" fill="rgb(251,212,50)" rx="2" ry="2" />
<text  x="512.86" y="271.5" ></text>
</g>
<g >
<title>QWidgetRepaintManager::paintAndFlush (24,968,849 samples, 3.86%)</title><rect x="464.3" y="373" width="45.6" height="15.0" fill="rgb(216,52,12)" rx="2" ry="2" />
<text  x="467.34" y="383.5" >QWid..</text>
</g>
<g >
<title>QWaitCondition::wait (5,050,505 samples, 0.78%)</title><rect x="1152.7" y="549" width="9.2" height="15.0" fill="rgb(211,30,7)" rx="2" ry="2" />
<text  x="1155.67" y="559.5" ></text>
</g>
<g >
<title>main (79,831,596 samples, 12.33%)</title><rect x="441.1" y="565" width="145.5" height="15.0" fill="rgb(243,179,42)" rx="2" ry="2" />
<text  x="444.09" y="575.5" >main</text>
</g>
<g >
<title>QFrame::event (17,333,963 samples, 2.68%)</title><rect x="519.0" y="261" width="31.6" height="15.0" fill="rgb(242,170,40)" rx="2" ry="2" />
<text  x="522.01" y="271.5" >QF..</text>
</g>
<g >
<title>QCoreApplication::exec (79,831,596 samples, 12.33%)</title><rect x="441.1" y="549" width="145.5" height="15.0" fill="rgb(218,61,14)" rx="2" ry="2" />
<text  x="444.09" y="559.5" >QCoreApplication::..</text>
</g>
<g >
<title>QWidget::event (17,333,963 samples, 2.68%)</title><rect x="519.0" y="245" width="31.6" height="15.0" fill="rgb(210,24,5)" rx="2" ry="2" />
<text  x="522.01" y="255.5" >QW..</text>
</g>
<g >
<title>[libQt6Core.so.6.10.2] (18,042,047 samples, 2.79%)</title><rect x="916.9" y="549" width="32.9" height="15.0" fill="rgb(208,17,4)" rx="2" ry="2" />
<text  x="919.87" y="559.5" >[l..</text>
</g>
<g >
<title>QWidgetPrivate::paintSiblingsRecursive (24,968,849 samples, 3.86%)</title><rect x="464.3" y="245" width="45.6" height="15.0" fill="rgb(234,137,32)" rx="2" ry="2" />
<text  x="467.34" y="255.5" >QWid..</text>
</g>
<g >
<title>QCoreApplicationPrivate::sendPostedEvents (30,019,354 samples, 4.64%)</title><rect x="455.1" y="437" width="54.8" height="15.0" fill="rgb(226,96,23)" rx="2" ry="2" />
<text  x="458.13" y="447.5" >QCore..</text>
</g>
<g >
<title>[libQt6Widgets.so.6.10.2] (5,017,560 samples, 0.78%)</title><rect x="509.9" y="277" width="9.1" height="15.0" fill="rgb(251,212,50)" rx="2" ry="2" />
<text  x="512.86" y="287.5" ></text>
</g>
<g >
<title>[libQt6Widgets.so.6.10.2] (24,968,849 samples, 3.86%)</title><rect x="464.3" y="133" width="45.6" height="15.0" fill="rgb(251,212,50)" rx="2" ry="2" />
<text  x="467.34" y="143.5" >[lib..</text>
</g>
<g >
<title>[libglib-2.0.so.0.8600.4] (79,831,596 samples, 12.33%)</title><rect x="441.1" y="469" width="145.5" height="15.0" fill="rgb(245,185,44)" rx="2" ry="2" />
<text  x="444.09" y="479.5" >[libglib-2.0.so.0...</text>
</g>
<g >
<title>[libc.so.6] (23,092,552 samples, 3.57%)</title><rect x="1110.6" y="549" width="42.1" height="15.0" fill="rgb(223,84,20)" rx="2" ry="2" />
<text  x="1113.57" y="559.5" >[li..</text>
</g>
<g >
<title>[libQt6Widgets.so.6.10.2] (17,333,963 samples, 2.68%)</title><rect x="519.0" y="149" width="31.6" height="15.0" fill="rgb(251,212,50)" rx="2" ry="2" />
<text  x="522.01" y="159.5" >[l..</text>
</g>
<g >
<title>WaylandEventThr (20,476,702 samples, 3.16%)</title><rect x="1152.7" y="629" width="37.3" height="15.0" fill="rgb(241,166,39)" rx="2" ry="2" />
<text  x="1155.67" y="639.5" >Way..</text>
</g>
<g >
<title>[libQt6Gui.so.6.10.2] (5,017,560 samples, 0.78%)</title><rect x="509.9" y="85" width="9.1" height="15.0" fill="rgb(254,228,54)" rx="2" ry="2" />
<text  x="512.86" y="95.5" ></text>
</g>
<g >
<title>[libglib-2.0.so.0.8600.4] (5,208,893 samples, 0.80%)</title><rect x="586.6" y="517" width="9.5" height="15.0" fill="rgb(245,185,44)" rx="2" ry="2" />
<text  x="589.63" y="527.5" ></text>
</g>
<g >
<title>QCoreApplication::notifyInternal2 (5,017,560 samples, 0.78%)</title><rect x="509.9" y="245" width="9.1" height="15.0" fill="rgb(213,40,9)" rx="2" ry="2" />
<text  x="512.86" y="255.5" ></text>
</g>
<g >
<title>QWidgetPrivate::paintSiblingsRecursive (5,208,893 samples, 0.80%)</title><rect x="586.6" y="325" width="9.5" height="15.0" fill="rgb(234,137,32)" rx="2" ry="2" />
<text  x="589.63" y="335.5" ></text>
</g>
<g >
<title>[libwayland-client.so.0.24.0] (5,050,505 samples, 0.78%)</title><rect x="455.1" y="341" width="9.2" height="15.0" fill="rgb(211,31,7)" rx="2" ry="2" />
<text  x="458.13" y="351.5" ></text>
</g>
<g >
<title>[unknown] (4,643,989 samples, 0.72%)</title><rect x="432.6" y="613" width="8.5" height="15.0" fill="rgb(210,24,5)" rx="2" ry="2" />
<text  x="435.62" y="623.5" ></text>
</g>
<g >
<title>[libQt6Widgets.so.6.10.2] (17,333,963 samples, 2.68%)</title><rect x="519.0" y="197" width="31.6" height="15.0" fill="rgb(251,212,50)" rx="2" ry="2" />
<text  x="522.01" y="207.5" >[l..</text>
</g>
<g >
<title>QApplicationPrivate::notify_helper (5,208,893 samples, 0.80%)</title><rect x="586.6" y="453" width="9.5" height="15.0" fill="rgb(210,26,6)" rx="2" ry="2" />
<text  x="589.63" y="463.5" ></text>
</g>
<g >
<title>QWidgetPrivate::drawWidget (24,968,849 samples, 3.86%)</title><rect x="464.3" y="325" width="45.6" height="15.0" fill="rgb(234,133,32)" rx="2" ry="2" />
<text  x="467.34" y="335.5" >QWid..</text>
</g>
<g >
<title>[libQt6Gui.so.6.10.2] (202,259,527 samples, 31.25%)</title><rect x="63.9" y="581" width="368.7" height="15.0" fill="rgb(254,228,54)" rx="2" ry="2" />
<text  x="66.87" y="591.5" >[libQt6Gui.so.6.10.2]</text>
</g>
<g >
<title>[ld-linux-x86-64.so.2] (5,050,505 samples, 0.78%)</title><rect x="10.0" y="549" width="9.2" height="15.0" fill="rgb(243,178,42)" rx="2" ry="2" />
<text  x="13.00" y="559.5" ></text>
</g>
<g >
<title>QApplicationPrivate::notify_helper (42,110,872 samples, 6.51%)</title><rect x="509.9" y="389" width="76.7" height="15.0" fill="rgb(210,26,6)" rx="2" ry="2" />
<text  x="512.86" y="399.5" >QApplica..</text>
</g>
<g >
<title>QWidgetPrivate::paintSiblingsRecursive (24,968,849 samples, 3.86%)</title><rect x="464.3" y="213" width="45.6" height="15.0" fill="rgb(234,137,32)" rx="2" ry="2" />
<text  x="467.34" y="223.5" >QWid..</text>
</g>
<g >
<title>QBasicMutex::unlockInternalFutex (5,050,505 samples, 0.78%)</title><rect x="596.1" y="613" width="9.2" height="15.0" fill="rgb(245,184,44)" rx="2" ry="2" />
<text  x="599.13" y="623.5" ></text>
</g>
<g >
<title>QWidgetLineControl::emitCursorPositionChanged (5,017,560 samples, 0.78%)</title><rect x="509.9" y="165" width="9.1" height="15.0" fill="rgb(222,81,19)" rx="2" ry="2" />
<text  x="512.86" y="175.5" ></text>
</g>
<g >
<title>QWidgetPrivate::paintSiblingsRecursive (5,208,893 samples, 0.80%)</title><rect x="586.6" y="357" width="9.5" height="15.0" fill="rgb(234,137,32)" rx="2" ry="2" />
<text  x="589.63" y="367.5" ></text>
</g>
<g >
<title>QAccessible::queryAccessibleInterface (5,017,560 samples, 0.78%)</title><rect x="509.9" y="117" width="9.1" height="15.0" fill="rgb(239,158,37)" rx="2" ry="2" />
<text  x="512.86" y="127.5" ></text>
</g>
<g >
<title>QTableView::initViewItemOption (17,333,963 samples, 2.68%)</title><rect x="519.0" y="181" width="31.6" height="15.0" fill="rgb(245,185,44)" rx="2" ry="2" />
<text  x="522.01" y="191.5" >QT..</text>
</g>
<g >
<title>QApplicationPrivate::sendMouseEvent (42,110,872 samples, 6.51%)</title><rect x="509.9" y="341" width="76.7" height="15.0" fill="rgb(216,53,12)" rx="2" ry="2" />
<text  x="512.86" y="351.5" >QApplica..</text>
</g>
<g >
<title>QObject::event (5,050,505 samples, 0.78%)</title><rect x="455.1" y="389" width="9.2" height="15.0" fill="rgb(244,181,43)" rx="2" ry="2" />
<text  x="458.13" y="399.5" ></text>
</g>
<g >
<title>wl_display_dispatch_queue_pending (5,050,505 samples, 0.78%)</title><rect x="455.1" y="357" width="9.2" height="15.0" fill="rgb(234,136,32)" rx="2" ry="2" />
<text  x="458.13" y="367.5" ></text>
</g>
<g >
<title>[libQt6Gui.so.6.10.2] (148,308,889 samples, 22.91%)</title><rect x="162.2" y="565" width="270.4" height="15.0" fill="rgb(254,228,54)" rx="2" ry="2" />
<text  x="165.23" y="575.5" >[libQt6Gui.so.6.10.2]</text>
</g>
<g >
<title>QCoreApplicationPrivate::sendPostedEvents (5,208,893 samples, 0.80%)</title><rect x="586.6" y="485" width="9.5" height="15.0" fill="rgb(226,96,23)" rx="2" ry="2" />
<text  x="589.63" y="495.5" ></text>
</g>
<g >
<title>pthread_cond_timedwait (70,722,753 samples, 10.93%)</title><rect x="777.5" y="533" width="129.0" height="15.0" fill="rgb(213,39,9)" rx="2" ry="2" />
<text  x="780.52" y="543.5" >pthread_cond_tim..</text>
</g>
<g >
<title>QAccessibleCache::idForObject (5,017,560 samples, 0.78%)</title><rect x="509.9" y="101" width="9.1" height="15.0" fill="rgb(219,67,16)" rx="2" ry="2" />
<text  x="512.86" y="111.5" ></text>
</g>
<g >
<title>QSemaphore::release (12,987,100 samples, 2.01%)</title><rect x="949.8" y="533" width="23.6" height="15.0" fill="rgb(209,20,4)" rx="2" ry="2" />
<text  x="952.76" y="543.5" >Q..</text>
</g>
<g >
<title>[libc.so.6] (79,831,596 samples, 12.33%)</title><rect x="441.1" y="581" width="145.5" height="15.0" fill="rgb(223,84,20)" rx="2" ry="2" />
<text  x="444.09" y="591.5" >[libc.so.6]</text>
</g>
<g >
<title>QtWaylandClient::QWaylandDisplay::flushRequests (5,050,505 samples, 0.78%)</title><rect x="455.1" y="373" width="9.2" height="15.0" fill="rgb(223,83,19)" rx="2" ry="2" />
<text  x="458.13" y="383.5" ></text>
</g>
<g >
<title>[libc.so.6] (12,404,245 samples, 1.92%)</title><rect x="883.8" y="501" width="22.7" height="15.0" fill="rgb(223,84,20)" rx="2" ry="2" />
<text  x="886.84" y="511.5" >[..</text>
</g>
<g >
<title>[libc.so.6] (20,476,702 samples, 3.16%)</title><rect x="1152.7" y="613" width="37.3" height="15.0" fill="rgb(223,84,20)" rx="2" ry="2" />
<text  x="1155.67" y="623.5" >[li..</text>
</g>
<g >
<title>[libwayland-client.so.0.24.0] (5,050,505 samples, 0.78%)</title><rect x="455.1" y="325" width="9.2" height="15.0" fill="rgb(211,31,7)" rx="2" ry="2" />
<text  x="458.13" y="335.5" ></text>
</g>
<g >
<title>QAbstractEventDispatcher::registerTimer (14,708,844 samples, 2.27%)</title><rect x="550.6" y="277" width="26.8" height="15.0" fill="rgb(235,141,33)" rx="2" ry="2" />
<text  x="553.61" y="287.5" >Q..</text>
</g>
<g >
<title>QMutableEventPoint::detach (5,050,505 samples, 0.78%)</title><rect x="577.4" y="261" width="9.2" height="15.0" fill="rgb(250,208,49)" rx="2" ry="2" />
<text  x="580.42" y="271.5" ></text>
</g>
<g >
<title>QWidgetPrivate::drawWidget (24,968,849 samples, 3.86%)</title><rect x="464.3" y="357" width="45.6" height="15.0" fill="rgb(234,133,32)" rx="2" ry="2" />
<text  x="467.34" y="367.5" >QWid..</text>
</g>
<g >
<title>QWidget::event (5,208,893 samples, 0.80%)</title><rect x="586.6" y="437" width="9.5" height="15.0" fill="rgb(210,24,5)" rx="2" ry="2" />
<text  x="589.63" y="447.5" ></text>
</g>
<g >
<title>QWidgetPrivate::paintSiblingsRecursive (24,968,849 samples, 3.86%)</title><rect x="464.3" y="197" width="45.6" height="15.0" fill="rgb(234,137,32)" rx="2" ry="2" />
<text  x="467.34" y="207.5" >QWid..</text>
</g>
</g>
</svg>
