<svg xmlns="http://www.w3.org/2000/svg" viewBox="0 0 512 512" width="512" height="512">
  <defs>
    <radialGradient id="star1" cx="50%" cy="50%" r="50%">
      <stop offset="0%" stop-color="#ffffff"/>
      <stop offset="35%" stop-color="#7dd3fc"/>
      <stop offset="100%" stop-color="#0ea5e9" stop-opacity="0"/>
    </radialGradient>
    <radialGradient id="star2" cx="50%" cy="50%" r="50%">
      <stop offset="0%" stop-color="#ffffff"/>
      <stop offset="35%" stop-color="#60a5fa"/>
      <stop offset="100%" stop-color="#1e40af" stop-opacity="0"/>
    </radialGradient>
    <linearGradient id="bg" x1="0%" y1="0%" x2="100%" y2="100%">
      <stop offset="0%" stop-color="#0f172a"/>
      <stop offset="100%" stop-color="#020617"/>
    </linearGradient>
    <linearGradient id="letterA" x1="0%" y1="0%" x2="0%" y2="100%">
      <stop offset="0%" stop-color="#e0f2fe"/>
      <stop offset="100%" stop-color="#38bdf8"/>
    </linearGradient>
  </defs>

  <rect x="0" y="0" width="512" height="512" rx="96" ry="96" fill="url(#bg)"/>

  <g fill="#cbd5e1">
    <circle cx="55" cy="90" r="2" opacity="0.7"/>
    <circle cx="120" cy="55" r="1.4" opacity="0.55"/>
    <circle cx="200" cy="80" r="1" opacity="0.5"/>
    <circle cx="310" cy="60" r="1.6" opacity="0.6"/>
    <circle cx="380" cy="110" r="1.2" opacity="0.5"/>
    <circle cx="450" cy="70" r="2" opacity="0.7"/>
    <circle cx="475" cy="160" r="1.3" opacity="0.55"/>
    <circle cx="40" cy="200" r="1.5" opacity="0.55"/>
    <circle cx="70" cy="300" r="1.2" opacity="0.5"/>
    <circle cx="35" cy="380" r="1.8" opacity="0.6"/>
    <circle cx="100" cy="450" r="1.4" opacity="0.55"/>
    <circle cx="180" cy="470" r="1.1" opacity="0.45"/>
    <circle cx="260" cy="485" r="1.6" opacity="0.6"/>
    <circle cx="340" cy="465" r="1.2" opacity="0.5"/>
    <circle cx="420" cy="450" r="1.8" opacity="0.65"/>
    <circle cx="470" cy="380" r="1.3" opacity="0.55"/>
    <circle cx="455" cy="290" r="1.5" opacity="0.6"/>
    <circle cx="490" cy="240" r="1" opacity="0.45"/>
    <circle cx="155" cy="155" r="1" opacity="0.4"/>
    <circle cx="365" cy="225" r="1" opacity="0.4"/>
  </g>

  <g transform="rotate(-15 256 180)">
    <ellipse cx="256" cy="180" rx="170" ry="50" fill="none" stroke="#38bdf8" stroke-width="2" opacity="0.4"/>
    <circle cx="86" cy="180" r="36" fill="url(#star1)" opacity="0.9"/>
    <circle cx="86" cy="180" r="13" fill="#ffffff"/>
    <circle cx="426" cy="180" r="30" fill="url(#star2)" opacity="0.9"/>
    <circle cx="426" cy="180" r="10" fill="#dbeafe"/>
  </g>
    
  <path fill="url(#letterA)" fill-rule="evenodd"
    d="M 256 83
       L 393 437
       L 339 437
       L 307 354
       L 205 354
       L 173 437
       L 119 437 Z
       M 256 203
       L 221 305
       L 291 305 Z"/>
</svg>